<?xml version="1.0" encoding="UTF-8"?>
<svg id="Capa_1" xmlns="http://www.w3.org/2000/svg" version="1.1" viewBox="0 0 30 30">
  <!-- Generator: Adobe Illustrator 29.8.1, SVG Export Plug-In . SVG Version: 2.1.1 Build 2)  -->
  <defs>
    <style>
      .st0 {
        fill: #129689;
        fill-rule: evenodd;
        isolation: isolate;
        opacity: .99;
      }
    </style>
  </defs>
  <path class="st0" d="M14.45,0c5.84,0,10.33,2.45,13.46,7.33,2.36,4.2,2.73,8.57,1.11,13.12-2.27,5.33-6.26,8.48-11.98,9.45-5.77.59-10.47-1.37-14.07-5.88C-.16,19.56-.81,14.76.99,9.61,2.53,5.83,5.15,3.07,8.84,1.32c1.8-.78,3.66-1.22,5.6-1.32ZM22.45,8.87c.79,0,1.05.37.77,1.11-3.41,3.9-6.82,7.8-10.22,11.7-.31.29-.65.32-1.02.09-1.49-1.98-2.98-3.96-4.46-5.94-.26-.45-.17-.81.28-1.08.18-.04.37-.04.55,0,1.13.76,2.26,1.52,3.39,2.28.31.23.64.27.99.12,3.24-2.78,6.48-5.54,9.73-8.28Z"/>
</svg>