<?xml version="1.0" encoding="UTF-8"?>
<svg id="Capa_1" xmlns="http://www.w3.org/2000/svg" version="1.1" viewBox="0 0 80 80">
  <!-- Generator: Adobe Illustrator 29.8.1, SVG Export Plug-In . SVG Version: 2.1.1 Build 2)  -->
  <defs>
    <style>
      .st0 {
        fill: none;
        opacity: .74;
        stroke: #129689;
      }

      .st0, .st1, .st2, .st3, .st4 {
        isolation: isolate;
      }

      .st1 {
        opacity: .93;
      }

      .st1, .st2, .st3, .st4 {
        fill: #129689;
        fill-rule: evenodd;
      }

      .st2 {
        opacity: .94;
      }

      .st3 {
        opacity: .93;
      }

      .st4 {
        opacity: .93;
      }
    </style>
  </defs>
  <rect class="st0" x=".5" y=".5" width="79" height="79" rx="9.5" ry="9.5"/>
  <path class="st2" d="M24.49,19.01c8.26-.02,16.52,0,24.78.06,4.33.72,7.28,3.12,8.87,7.2.29.87.47,1.77.56,2.68,3.45,1.81,5.53,4.64,6.25,8.49.11,3.13.07,6.26-.11,9.38-1.27,4.85-4.38,7.74-9.32,8.66-5.39.06-10.79.07-16.18.06.14,1.34.2,2.68.17,4.02-.6,1.3-1.59,1.72-2.96,1.28-.19-.11-.37-.22-.56-.34-1.39-1.61-2.77-3.23-4.13-4.86-6.04-.78-9.59-4.17-10.66-10.16-3.43-1.76-5.48-4.55-6.14-8.38-.07-2.9-.07-5.81,0-8.71,1.06-5.25,4.2-8.37,9.43-9.38ZM24.6,20.91c8.37-.05,16.74,0,25.11.17,3.77,1,6.08,3.4,6.92,7.2-1.78-.17-3.56-.26-5.36-.28-6.35-.02-12.69-.04-19.03-.06-5.3.35-8.83,3.03-10.6,8.04-.15.59-.27,1.18-.33,1.79-.02,1.83-.07,3.65-.17,5.47-2.77-1.81-4.2-4.38-4.3-7.71-.09-2.31-.05-4.62.11-6.92.93-4.19,3.48-6.76,7.64-7.71ZM31.96,29.84c7.44-.02,14.88,0,22.32.06,3.63.25,6.29,1.98,7.98,5.19.38.82.64,1.67.78,2.57.25,2.95.21,5.89-.11,8.82-1.08,3.95-3.63,6.31-7.64,7.09-5.85,0-11.69.08-17.52.22-.33.25-.48.59-.45,1.01.16,1.43.27,2.86.33,4.3-.31-.03-.55-.18-.73-.45-1.31-1.69-2.71-3.3-4.19-4.86-4.92-.24-8.07-2.71-9.43-7.43-.18-2.83-.22-5.66-.11-8.49.99-4.8,3.91-7.48,8.76-8.04ZM33.08,39.33c1.21.08,1.6.68,1.17,1.79-.96.73-1.65.53-2.06-.61.08-.58.38-.97.89-1.17ZM43.68,39.33c.98,0,1.45.48,1.4,1.45-.28.69-.79.93-1.51.73-.62-.33-.82-.83-.61-1.51.17-.31.41-.54.73-.67ZM54.28,39.33c1.13.03,1.56.59,1.28,1.68-.67.74-1.34.74-2.01,0-.24-.77,0-1.33.73-1.68Z"/>
  <path class="st3" d="M32.74,37.43c1.76-.17,2.93.57,3.52,2.23.24,2.74-1,3.98-3.74,3.74-2.01-.89-2.62-2.36-1.84-4.41.49-.81,1.18-1.33,2.06-1.56ZM33.08,39.33c-.52.2-.82.59-.89,1.17.42,1.14,1.11,1.35,2.06.61.43-1.11.04-1.7-1.17-1.79Z"/>
  <path class="st4" d="M43.35,37.43c1.94-.15,3.15.7,3.63,2.57,0,2.5-1.25,3.63-3.74,3.41-1.71-.61-2.43-1.82-2.18-3.63.34-1.21,1.1-1.99,2.29-2.35ZM43.68,39.33c-.32.13-.56.36-.73.67-.21.68,0,1.18.61,1.51.72.21,1.22-.03,1.51-.73.05-.97-.41-1.46-1.4-1.45Z"/>
  <path class="st1" d="M53.95,37.43c1.76-.17,2.93.57,3.52,2.23.24,2.74-1,3.98-3.74,3.74-1.72-.66-2.4-1.91-2.06-3.74.39-1.15,1.15-1.89,2.29-2.23ZM54.28,39.33c-.73.34-.97.9-.73,1.68.67.74,1.34.74,2.01,0,.28-1.08-.15-1.64-1.28-1.68Z"/>
</svg>