<?xml version="1.0" encoding="UTF-8"?>
<svg id="Capa_1" xmlns="http://www.w3.org/2000/svg" version="1.1" viewBox="0 0 80 80">
  <!-- Generator: Adobe Illustrator 29.8.1, SVG Export Plug-In . SVG Version: 2.1.1 Build 2)  -->
  <defs>
    <style>
      .st0 {
        fill: none;
        opacity: .74;
        stroke: #129689;
      }

      .st0, .st1 {
        isolation: isolate;
      }

      .st1 {
        fill: #129689;
        fill-rule: evenodd;
        opacity: .87;
      }
    </style>
  </defs>
  <rect class="st0" x=".5" y=".5" width="79" height="79" rx="9.5" ry="9.5"/>
  <path class="st1" d="M39.53,15h2.02c2.84.75,4.36,2.56,4.57,5.44-.24,3.16-1.97,5-5.19,5.52-.09,1.48-.12,2.97-.09,4.45.76.18,1.52.36,2.29.56.88.01,1.76.07,2.64.17.64.17,1.2.49,1.67.94,1.16.29,2.3.62,3.43.98.54-.31,1.07-.64,1.58-.98-1.34-2.98-.67-5.44,2.02-7.36,2.71-1.3,5.13-.92,7.25,1.16.64.76,1.06,1.62,1.27,2.57v2.05c-.79,2.77-2.67,4.25-5.62,4.45-1.88-.05-3.38-.79-4.53-2.23-.5.31-1,.63-1.49.94-.03,1-.06,2-.09,3-.16.43-.47.69-.92.77.01,2.25,0,4.51-.04,6.76-.09.74-.51,1.18-1.27,1.33,1.14.78,2.29,1.57,3.43,2.35,1.6-1.69,3.57-2.28,5.89-1.76,3.19,1.2,4.49,3.44,3.91,6.72-.89,2.55-2.72,3.92-5.49,4.11-2.91-.22-4.74-1.71-5.49-4.45-.26-1.42-.02-2.75.75-3.98-1.3-.88-2.59-1.78-3.87-2.7-2.4.88-4.8,1.77-7.21,2.65-.09,1.85-.12,3.71-.09,5.57,2.88.37,4.63,1.94,5.23,4.71.18,3.31-1.36,5.39-4.61,6.25h-1.93c-3.26-.86-4.79-2.94-4.61-6.25.6-2.77,2.34-4.34,5.23-4.71.01-1.77,0-3.54-.04-5.31-.3.1-.61.11-.92.04-2.83-.71-5.66-1.44-8.48-2.18-.74.41-1.46.85-2.15,1.33,1.23,2.64.76,4.95-1.41,6.94-2.05,1.37-4.19,1.51-6.42.43-1.48-.92-2.39-2.22-2.72-3.9v-1.71c.71-2.84,2.57-4.39,5.58-4.62,1.89.04,3.42.78,4.57,2.23.56-.38,1.14-.75,1.71-1.11-.1-.16-.17-.33-.22-.51-.04-2.31-.06-4.62-.04-6.93-.55-.09-.89-.41-1.01-.94-.06-.88-.06-1.77,0-2.65.07-.27.21-.52.4-.73.54-.25,1.1-.48,1.67-.68.12-.06.12-.11,0-.17-.72-.45-1.42-.93-2.11-1.41-1.78,1.85-3.92,2.37-6.42,1.58-2.66-1.23-3.82-3.27-3.47-6.12.71-2.82,2.56-4.3,5.54-4.45,2.43.09,4.16,1.2,5.19,3.34.63,1.73.5,3.4-.4,5.01.87.58,1.71,1.18,2.55,1.8.12.06.23.06.35,0,2.74-1.03,5.49-2.01,8.26-2.95.03-1.46,0-2.91-.09-4.37-3.21-.52-4.94-2.36-5.19-5.52.2-2.92,1.75-4.74,4.66-5.44ZM39.88,15.68c2.82-.06,4.62,1.22,5.41,3.85.31,2.99-1.03,4.86-4,5.61-2.88.19-4.74-1.05-5.58-3.72-.29-3.08,1.1-4.99,4.17-5.74ZM23.54,23.82c2.89-.08,4.72,1.23,5.49,3.94.21,2.91-1.12,4.75-4,5.52-2.93.19-4.79-1.08-5.58-3.81-.26-3,1.1-4.89,4.09-5.65ZM56.85,24.67c2.34-.08,4.02.9,5.05,2.91.92,2.84.03,4.94-2.68,6.29-2.43.74-4.41.13-5.93-1.84-1.26-2.3-.95-4.37.92-6.21.79-.6,1.67-.98,2.64-1.16ZM40.15,31.01c.63.11,1.24.27,1.85.47-3.28,1.2-6.56,2.4-9.84,3.6-.64-.02-1.26-.16-1.85-.43,3.3-1.19,6.58-2.41,9.84-3.64ZM43.49,31.7c.99-.1,1.93.05,2.81.47-3.38,1.3-6.77,2.56-10.2,3.77-.42.21-.67.54-.75.98-.03,1.66-.06,3.31-.09,4.97-.04.23-.09.46-.18.68-.43-.52-.76-1.09-1.01-1.71.21-.31.21-.61,0-.9-.19-.07-.35-.03-.48.13-.26.65-.62,1.22-1.1,1.71-.07-.14-.11-.28-.13-.43-.06-1.8-.06-3.6,0-5.39.03-.08.08-.15.13-.21,3.67-1.37,7.33-2.72,10.99-4.07ZM47,32.72c.9.25,1.81.49,2.72.73-3.3,1.22-6.61,2.41-9.93,3.6-.15.06-.29.06-.44,0-.79-.2-1.58-.4-2.37-.6,3.35-1.24,6.69-2.48,10.02-3.72ZM50.43,33.92c.12.38.18.79.18,1.24-.01.41-.03.83-.04,1.24-.03.08-.08.15-.13.21-3.6,1.36-7.22,2.69-10.85,3.98-1.15-.31-2.29-.63-3.43-.94-.04-.88-.06-1.77-.04-2.65,1.16.28,2.32.56,3.47.86,3.66-1.24,7.27-2.55,10.85-3.94ZM29.34,35.21c.73.21,1.46.41,2.2.6.1.91.12,1.83.04,2.74-.65-.2-1.31-.39-1.98-.56-.07-.07-.15-.14-.22-.21-.04-.86-.06-1.71-.04-2.57ZM49.38,37.77c.12,1.07.18,2.17.18,3.3-.01,1.1-.03,2.2-.04,3.3-.04.16-.15.26-.31.3-3.18,1.18-6.38,2.34-9.58,3.47-2.93-.76-5.86-1.51-8.79-2.27-.18-.05-.31-.15-.4-.3-.07-2.2-.06-4.4.04-6.59.37.09.74.21,1.1.34-.03.8,0,1.6.09,2.4.11.88.57,1.13,1.36.73.19-.24.38-.49.57-.73.26.57.63,1.07,1.1,1.5.4.2.73.13,1.01-.21.3-.83.45-1.68.44-2.57,1,.29,2.01.56,3.03.81.07,1.89.12,3.79.13,5.69.28.25.51.22.7-.09.01-1.88.06-3.77.13-5.65,3.1-1.11,6.17-2.25,9.23-3.42ZM23.45,45.74c2.66.18,4.31,1.52,4.97,4.02.25,2.4-.73,4.13-2.94,5.18-2.85.86-4.97.02-6.37-2.53-.85-2.47-.19-4.45,1.98-5.95.75-.41,1.54-.65,2.37-.73ZM55.97,46.68c2.17-.21,3.85.56,5.05,2.31,1.22,2.5.74,4.63-1.45,6.38-2.42,1.33-4.61,1.03-6.55-.9-1.07-1.36-1.36-2.88-.88-4.54.69-1.75,1.97-2.83,3.82-3.25ZM39.71,54.81c2.88-.15,4.74,1.11,5.58,3.77.33,2.82-.89,4.69-3.65,5.61-2.86.41-4.8-.69-5.84-3.3-.52-2.24.16-4.02,2.07-5.35.58-.34,1.2-.58,1.85-.73Z"/>
</svg>