<?xml version="1.0" encoding="UTF-8"?>
<svg id="Capa_1" xmlns="http://www.w3.org/2000/svg" version="1.1" viewBox="0 0 80 80">
  <!-- Generator: Adobe Illustrator 29.8.1, SVG Export Plug-In . SVG Version: 2.1.1 Build 2)  -->
  <defs>
    <style>
      .st0 {
        fill: none;
        opacity: .74;
        stroke: #129689;
      }

      .st0, .st1 {
        isolation: isolate;
      }

      .st1 {
        fill: #129689;
        fill-rule: evenodd;
        opacity: .93;
      }
    </style>
  </defs>
  <rect class="st0" x=".5" y=".5" width="79" height="79" rx="9.5" ry="9.5"/>
  <path class="st1" d="M39.06,15.04c1.17-.13,2.28.06,3.33.57,6.88,4.4,13.78,8.77,20.69,13.12,1.67,1.37,2.24,3.13,1.72,5.26-.32.93-.86,1.71-1.61,2.34-.73.53-1.51.96-2.34,1.3-.8-.22-1.02-.71-.68-1.46.62-.49,1.28-.92,1.98-1.3.91-.83,1.24-1.85.99-3.07-.23-.79-.7-1.4-1.4-1.82-6.71-4.21-13.4-8.44-20.07-12.7-1.11-.62-2.22-.62-3.33,0-6.83,4.34-13.66,8.67-20.48,13.01-1.03.93-1.32,2.06-.88,3.38.21.46.5.86.88,1.2,6.97,4.41,13.93,8.81,20.9,13.22.83.35,1.66.35,2.5,0,3.02-1.91,6.03-3.82,9.05-5.73,1.26-.05,1.57.47.94,1.56-3.02,1.91-6.03,3.82-9.05,5.72-1.68.71-3.31.6-4.89-.31-6.83-4.34-13.66-8.67-20.48-13.01-1.78-1.6-2.25-3.52-1.4-5.78.39-.7.89-1.31,1.51-1.82,6.92-4.35,13.81-8.72,20.69-13.12.48-.22.97-.42,1.46-.57Z"/>
  <path class="st1" d="M39.17,29.93c1.19-.14,2.3.08,3.33.68,6.92,4.35,13.81,8.72,20.69,13.12,1.78,1.6,2.25,3.52,1.4,5.78-.39.7-.89,1.31-1.51,1.82-6.97,4.41-13.93,8.81-20.9,13.22-1.54.65-3.07.62-4.58-.1-6.88-4.4-13.78-8.77-20.69-13.12-1.67-1.37-2.24-3.13-1.72-5.26.48-1.31,1.32-2.3,2.55-2.97.95-.23,1.38.14,1.3,1.09-.08.19-.2.34-.36.47-1.91,1.07-2.38,2.58-1.4,4.53.23.23.45.45.68.68,6.79,4.3,13.59,8.6,20.38,12.91,1.11.62,2.22.62,3.33,0,6.67-4.26,13.36-8.49,20.07-12.7,1.51-1.06,1.87-2.43,1.09-4.11-.19-.29-.41-.55-.68-.78-6.97-4.41-13.93-8.81-20.9-13.22-.83-.35-1.66-.35-2.5,0-2.48,1.54-4.94,3.1-7.38,4.68-.84.51-1.4.3-1.66-.62.03-.3.17-.55.42-.73,2.41-1.5,4.8-3.03,7.17-4.58.6-.35,1.22-.61,1.87-.78Z"/>
</svg>