<?xml version="1.0" encoding="UTF-8"?>
<svg id="Capa_1" xmlns="http://www.w3.org/2000/svg" version="1.1" viewBox="0 0 80 80">
  <!-- Generator: Adobe Illustrator 29.8.1, SVG Export Plug-In . SVG Version: 2.1.1 Build 2)  -->
  <defs>
    <style>
      .st0 {
        fill: none;
        opacity: .74;
        stroke: #129689;
      }

      .st0, .st1, .st2, .st3, .st4, .st5 {
        isolation: isolate;
      }

      .st1 {
        opacity: .87;
      }

      .st1, .st2, .st3, .st4, .st5 {
        fill: #129689;
        fill-rule: evenodd;
      }

      .st2 {
        opacity: .88;
      }

      .st3 {
        opacity: .87;
      }

      .st4 {
        opacity: .88;
      }

      .st5 {
        opacity: .92;
      }
    </style>
  </defs>
  <rect class="st0" x=".5" y=".5" width="79" height="79" rx="9.5" ry="9.5"/>
  <path class="st3" d="M45.29,25.06c.66-.1.92.17.76.81-1.61,1.03-3.25,1.99-4.95,2.9-.66.15-.92-.1-.76-.76.09-.08.17-.17.25-.25,1.59-.87,3.15-1.77,4.69-2.69Z"/>
  <path class="st4" d="M45.29,28.52c.66-.1.92.17.76.81-1.66,1.01-3.34,1.97-5.05,2.9-.61.1-.83-.15-.66-.76.03-.08.08-.15.15-.2,1.62-.89,3.22-1.81,4.79-2.74Z"/>
  <path class="st3" d="M50.09,33.39c.79.08.96.43.51,1.07-3.25,1.84-6.51,3.65-9.79,5.44-.35-.05-.52-.25-.51-.61-.01-.19.06-.34.2-.46,3.22-1.79,6.41-3.6,9.58-5.44Z"/>
  <path class="st4" d="M45.7,39.29c.83-.1,1.06.23.71.97-1.77.98-3.53,1.96-5.3,2.95-.82.1-1.02-.2-.61-.91,1.75-.99,3.48-1.98,5.2-3Z"/>
  <path class="st2" d="M50.09,43.56c.67,0,.9.3.66.91-3,1.72-6.01,3.43-9.02,5.13-.29.18-.59.29-.92.36-.47-.07-.63-.34-.46-.81,3.24-1.88,6.49-3.74,9.74-5.59Z"/>
  <g>
    <path class="st5" d="M54.01,20.69c-3.17-1.71-6.31-3.45-9.43-5.23-.35-.21-.73-.36-1.12-.46-5.48,3.19-10.99,6.36-16.52,9.5-.83.62-1.42,1.42-1.78,2.39-.12,3.7-.17,7.41-.15,11.13.03,7.91.08,15.82.15,23.73.1.4.32.73.66.97,1.31.77,2.64,1.52,3.98,2.24.27.07.54.07.82,0,7.17-4.01,14.3-8.08,21.41-12.2.99-.61,1.66-1.47,1.99-2.59.12-2.79.17-5.58.15-8.38-.04-7.03-.09-14.06-.15-21.09ZM52.33,21c-1.5.89-3.02,1.77-4.54,2.64-.05-1.69-.07-3.39-.05-5.08,1.54.79,3.07,1.6,4.59,2.44ZM28.62,63.07c-.64-.43-1.3-.82-1.99-1.17-.15-.08-.27-.2-.36-.36-.1-6.89-.15-13.79-.15-20.68-.02-4.59.03-9.18.15-13.77.27-.68.7-1.24,1.27-1.68,5.33-3.04,10.63-6.11,15.91-9.2.89.39,1.74.87,2.55,1.42-5.17,3.05-10.37,6.05-15.6,8.99-1,.75-1.59,1.75-1.78,3-.02,1.76-.03,3.52-.05,5.28.1,9.38.12,18.77.05,28.15ZM52.89,50.06c-.31.75-.8,1.34-1.48,1.78-6.98,3.97-13.95,7.97-20.9,11.99-.31.12-.53.03-.66-.25-.14-11.35-.18-22.7-.1-34.04.26-.86.75-1.56,1.48-2.08,5.1-2.88,10.17-5.81,15.19-8.79.19,1.69.27,3.42.25,5.18.07.77.5,1.1,1.27.97,1.66-.92,3.31-1.85,4.95-2.79.12,4.83.17,9.65.15,14.48.02,4.53-.04,9.05-.15,13.57Z"/>
    <path class="st5" d="M37.65,27.3c-1.89,1.1-3.77,2.22-5.66,3.35-.08.2-.13.4-.15.61.07,2.16.13,4.31.2,6.45.13.08.26.13.41.15,2.04-1.06,4.03-2.21,5.96-3.46.07-2.3.07-4.61,0-6.91-.22-.18-.47-.25-.76-.2ZM32.96,33.8c0,.85,0,1.69.05,2.54-.04-.85-.06-1.69-.05-2.54Z"/>
    <path class="st5" d="M37.85,37.97c-1.99,1.08-3.94,2.24-5.86,3.46-.1.17-.15.36-.15.56.08,2.12.13,4.23.15,6.35.22.2.47.25.76.15,1.91-1.06,3.8-2.16,5.66-3.3.07-2.3.07-4.61,0-6.91-.15-.17-.34-.27-.56-.3ZM37.34,44.57c-1.44.86-2.88,1.71-4.33,2.54-.03-.85-.05-1.69-.05-2.54,0,.85.02,1.69.05,2.54,1.45-.83,2.9-1.68,4.33-2.54.07-.86.1-1.71.1-2.55,0,.85-.03,1.7-.1,2.55Z"/>
    <path class="st5" d="M37.75,48.74c-1.91,1.13-3.83,2.25-5.76,3.35-.08.2-.13.4-.15.61.08,2.13.13,4.27.15,6.4.22.2.47.25.76.15,1.88-1.11,3.76-2.21,5.66-3.3.07-2.34.07-4.67,0-7.01-.19-.15-.41-.22-.66-.2ZM37.39,55.24c-1.42.89-2.86,1.73-4.33,2.54-.06-.83-.09-1.66-.1-2.49,0,.83.04,1.66.1,2.49,1.47-.81,2.91-1.66,4.33-2.54.02-.83.03-1.66.05-2.49h0c-.02.83-.03,1.66-.05,2.49Z"/>
  </g>
  <path class="st1" d="M45.91,49.35c.54.02.76.29.66.81-.08.08-.17.17-.25.25-1.73.98-3.47,1.96-5.2,2.95-.66.15-.92-.1-.76-.76,1.83-1.13,3.69-2.21,5.56-3.25Z"/>
</svg>