<?xml version="1.0" encoding="UTF-8"?>
<svg id="Capa_1" xmlns="http://www.w3.org/2000/svg" version="1.1" viewBox="0 0 80 80">
  <!-- Generator: Adobe Illustrator 29.8.1, SVG Export Plug-In . SVG Version: 2.1.1 Build 2)  -->
  <defs>
    <style>
      .st0 {
        fill: none;
        opacity: .74;
        stroke: #129689;
      }

      .st0, .st1 {
        isolation: isolate;
      }

      .st2, .st1 {
        fill: #129689;
        fill-rule: evenodd;
      }

      .st1 {
        opacity: .95;
      }
    </style>
  </defs>
  <rect class="st0" x=".5" y=".5" width="79" height="79" rx="9.5" ry="9.5"/>
  <path class="st1" d="M36.85,15.05c2.03-.25,3.48.53,4.35,2.34.13,2.63.22,5.27.28,7.91,5.54,1.77,8.8,5.48,9.78,11.14.04,3.38.08,6.76.11,10.14.09,1.26.43,2.45,1.02,3.57,1.74-1.1,3.65-1.49,5.71-1.17,4.27.99,6.57,3.65,6.9,7.97-.29,4.05-2.4,6.67-6.33,7.86-3.73.69-6.69-.48-8.87-3.51-.28-.51-.52-1.03-.73-1.56-1.43-.11-2.86-.15-4.3-.11-.66,2.52-2.24,4.21-4.75,5.07-3.5.88-6.31-.1-8.42-2.95-.41-.66-.69-1.37-.85-2.12-4.03.02-8.06,0-12.1-.06-2.12-.73-2.96-2.2-2.54-4.4.28-.86.78-1.55,1.53-2.06,1.26-.39,2.51-.84,3.73-1.34,1.62-1.02,2.51-2.49,2.66-4.4.13-3.64.21-7.28.23-10.92.97-5.66,4.23-9.37,9.78-11.14.09-2.52.15-5.05.17-7.58.38-1.39,1.26-2.29,2.66-2.67ZM37.19,16.94c1.03-.17,1.76.2,2.2,1.11.18,2.3.22,4.6.11,6.91-1.17-.15-2.34-.15-3.5,0-.08-2.12-.08-4.23,0-6.35.07-.79.47-1.35,1.19-1.67ZM37.64,26.63c6.13.41,9.99,3.53,11.59,9.36.12.74.19,1.48.23,2.23.04,3.08.08,6.17.11,9.25.12,1.39.55,2.67,1.3,3.84-1.75,1.83-2.51,4-2.26,6.52-9.68.02-19.37,0-29.05-.06-1.22-.24-1.73-.96-1.53-2.17.12-.34.32-.62.62-.84.98-.33,1.96-.67,2.94-1,2.69-1.24,4.15-3.34,4.35-6.3.01-3.53.09-7.06.23-10.59.64-3.86,2.65-6.77,6.05-8.75,1.72-.89,3.52-1.39,5.43-1.5ZM56.75,50.7c3.83.39,5.9,2.47,6.22,6.24-.08,2.58-1.29,4.46-3.62,5.63-3.64,1.21-6.4.18-8.31-3.06-1.22-3.58-.19-6.31,3.11-8.19.85-.34,1.72-.55,2.6-.61ZM32.78,59.62h9.95c-1.23,2.8-3.38,3.89-6.44,3.29-1.71-.55-2.87-1.64-3.5-3.29Z"/>
  <path class="st2" d="M55.84,52.49h1.81v3.57h3.62v1.78h-3.62v3.57h-1.81v-3.57h-3.62v-1.78h3.62v-3.57Z"/>
</svg>