<?xml version="1.0" encoding="UTF-8"?>
<svg id="Capa_1" xmlns="http://www.w3.org/2000/svg" version="1.1" viewBox="0 0 80 80">
  <!-- Generator: Adobe Illustrator 29.8.1, SVG Export Plug-In . SVG Version: 2.1.1 Build 2)  -->
  <defs>
    <style>
      .st0 {
        fill: none;
        opacity: .74;
        stroke: #129689;
      }

      .st0, .st1, .st2, .st3, .st4, .st5 {
        isolation: isolate;
      }

      .st1 {
        opacity: .82;
      }

      .st1, .st2, .st3, .st4, .st5 {
        fill: #129689;
        fill-rule: evenodd;
      }

      .st2 {
        opacity: .83;
      }

      .st3 {
        opacity: .89;
      }

      .st4 {
        opacity: .83;
      }

      .st5 {
        opacity: .86;
      }
    </style>
  </defs>
  <rect class="st0" x=".5" y=".5" width="79" height="79" rx="9.5" ry="9.5"/>
  <path class="st3" d="M22.42,15.01c1.31-.02,2.63,0,3.94.06.57.22.94.62,1.1,1.2.06,1.6.08,3.2.06,4.79,1.62-.02,3.25,0,4.87.06.96.28,1.38.91,1.28,1.88,4.42-.06,8.82,0,13.22.17,2.69,2.64,5.37,5.29,8.06,7.93.06,2.85.08,5.71.06,8.56,1.54.24,2.68,1.04,3.42,2.4.99,2.49.39,4.54-1.8,6.16,2.26,1.71,2.82,3.84,1.68,6.39-.42.7-.98,1.27-1.68,1.71,2.08,1.55,2.71,3.52,1.91,5.93-.67,1.48-1.81,2.37-3.42,2.68-9.4.11-18.79.07-28.18-.11-2.44-.9-3.54-2.63-3.31-5.19.27-1.47,1.06-2.55,2.38-3.25-2.16-1.39-2.87-3.31-2.15-5.76.41-1.03,1.08-1.83,2.03-2.4-1.24-.78-1.99-1.88-2.26-3.31-.06-3.88-.08-7.76-.06-11.64-1.06.27-1.82-.07-2.26-1.03-.06-1.67-.08-3.35-.06-5.02-1.7.02-3.4,0-5.1-.06-.44-.16-.77-.45-.99-.86-.23-1.41-.23-2.82,0-4.22.13-.39.38-.68.75-.86,1.77-.16,3.55-.22,5.33-.17-.02-1.67,0-3.35.06-5.02.21-.53.57-.87,1.1-1.03ZM22.65,16.03c1.16-.02,2.32,0,3.48.06.06.06.12.11.17.17.13,1.89.23,3.79.29,5.71,1.89.09,3.78.15,5.68.17.1.1.19.19.29.29.08,1.14.08,2.28,0,3.42-.04.09-.09.17-.17.23-1.89.09-3.78.15-5.68.17-.06.06-.12.11-.17.17-.04,1.83-.08,3.65-.12,5.48-.04.1-.1.2-.17.29-1.24.08-2.47.08-3.71,0-.06-.06-.12-.11-.17-.17-.04-1.83-.08-3.65-.12-5.48-.04-.09-.09-.17-.17-.23-1.89-.09-3.78-.15-5.68-.17-.16-.13-.26-.3-.29-.51-.08-.99-.08-1.98,0-2.97.04-.14.09-.28.17-.4,1.92-.15,3.85-.23,5.8-.23.06-.06.12-.11.17-.17.04-1.83.08-3.65.12-5.48.08-.14.18-.25.29-.34ZM33.67,24.02h12.29c-.04,2.55,0,5.1.12,7.65.06.08.14.14.23.17,2.55.06,5.1.08,7.65.06v7.65c-8.74-.02-17.47,0-26.21.06-1.22.14-2.25.65-3.07,1.54-.06-2.62-.08-5.25-.06-7.87.62.02,1.24,0,1.86-.06.4-.13.69-.37.87-.74.17-1.74.22-3.49.17-5.25,1.66.02,3.32,0,4.99-.06.55-.12.92-.45,1.1-.97.06-.72.08-1.44.06-2.17ZM47.01,24.94c2.03,1.94,4.04,3.9,6.03,5.88-2.01.06-4.02.08-6.03.06v-5.93ZM27.87,40.57c2.36.09,3.71,1.29,4.06,3.59-.45,2.65-2,3.79-4.64,3.42-2.13-.8-2.96-2.3-2.49-4.51.54-1.42,1.57-2.25,3.07-2.51ZM54.31,40.57c2,.2,3.22,1.26,3.65,3.2,0,2.18-1.09,3.51-3.25,3.99-7.81.02-15.64,0-23.48-.06,1.64-1.48,2.08-3.25,1.33-5.31-.28-.64-.68-1.19-1.22-1.65,7.67-.02,15.33-.08,22.96-.17ZM27.29,48.79c2.67-.28,4.22.88,4.64,3.48-.45,2.68-2.03,3.83-4.75,3.42-1.88-.72-2.71-2.07-2.49-4.05.34-1.44,1.21-2.39,2.61-2.85ZM31.35,48.9c7.94-.13,15.91-.15,23.89-.06,2.29.83,3.12,2.41,2.49,4.74-.57,1.2-1.51,1.95-2.84,2.23-7.89.08-15.77.08-23.66,0,1.63-1.47,2.08-3.24,1.33-5.31-.27-.64-.67-1.18-1.22-1.6ZM27.41,56.89c2.6-.21,4.1.95,4.52,3.48-.36,2.44-1.79,3.62-4.29,3.54-2.14-.59-3.13-1.98-2.96-4.17.42-1.42,1.33-2.37,2.73-2.85ZM31.35,57.01c7.94-.13,15.91-.15,23.89-.06,2.29.83,3.12,2.41,2.49,4.74-.51,1.21-1.42,1.95-2.73,2.23-7.89.08-15.77.08-23.66,0,1.84-1.95,2.05-4.06.64-6.33-.2-.21-.41-.4-.64-.57Z"/>
  <path class="st1" d="M43.53,19.57c.83.03,1.16.45.99,1.26-.59.63-1.13.59-1.62-.11-.1-.57.11-.95.64-1.14Z"/>
  <path class="st2" d="M58.95,34.29c.46-.04.85.11,1.16.46.31-.38.7-.5,1.16-.34.2.48.08.88-.35,1.2.45.3.57.7.35,1.2-.46.16-.85.04-1.16-.34-.31.38-.7.5-1.16.34-.26-.47-.14-.87.35-1.2-.52-.36-.63-.8-.35-1.31Z"/>
  <path class="st5" d="M19.17,41.14c.24-.02.47,0,.7.06.14.15.29.29.46.4.17-.11.33-.25.46-.4.72-.21.97.04.75.74-.16.14-.29.29-.41.46.11.17.25.32.41.46.16.45.03.75-.41.91-.3-.15-.57-.34-.81-.57-.24.26-.53.45-.87.57-.39-.08-.54-.31-.46-.68.15-.24.33-.47.52-.68-.22-.23-.41-.48-.58-.74.06-.18.14-.35.23-.51Z"/>
  <path class="st4" d="M62.66,50.5c.42,0,.77.15,1.04.46.31-.38.7-.5,1.16-.34.26.47.14.87-.35,1.2.49.33.61.73.35,1.2-.46.16-.85.04-1.16-.34-.31.38-.7.5-1.16.34-.26-.47-.14-.87.35-1.2-.57-.4-.65-.84-.23-1.31Z"/>
  <path class="st1" d="M22.77,55.52c.83.04,1.16.45.99,1.26-.6.64-1.14.6-1.62-.11-.1-.57.11-.95.64-1.14Z"/>
</svg>