<?xml version="1.0" encoding="UTF-8"?>
<svg id="Capa_1" xmlns="http://www.w3.org/2000/svg" version="1.1" viewBox="0 0 177 54">
  <!-- Generator: Adobe Illustrator 29.7.1, SVG Export Plug-In . SVG Version: 2.1.1 Build 8)  -->
  <defs>
    <style>
      .st0 {
        fill: #00edbb;
      }

      .st1 {
        fill: #011128;
      }
    </style>
  </defs>
  <g>
    <g>
      <path class="st1" d="M77.57,37.53c-1.76.58-5,1.37-8.37,1.37-4.57,0-7.83-1.09-10.08-3.17-2.08-1.9-3.23-4.61-3.23-7.61,0-7,5.65-11.38,13.79-11.38,3.27,0,5.8.6,7.03,1.17l-1.15,4.03c-1.43-.59-3.15-1.06-6.05-1.06-4.61,0-8.08,2.41-8.08,6.82s3.17,7.11,7.99,7.11c1.39,0,2.52-.16,2.99-.37v-4.34h-3.92v-3.95h9.08v11.38h0Z"/>
      <path class="st1" d="M95.75,27.02c.05.36.09.75.13,1.14s.06.81.06,1.24v.66h-13.13c.05.42.11.84.19,1.27s.2.85.38,1.27c.27.63.7,1.2,1.27,1.69.57.49,1.38.73,2.4.73s1.83-.24,2.4-.73,1-1.05,1.27-1.69h4.88c-.2.85-.48,1.6-.85,2.23s-.76,1.18-1.2,1.65c-.44.46-.91.85-1.41,1.15s-.99.55-1.46.75c-1.15.44-2.36.66-3.64.66-1.68-.03-3.17-.36-4.47-1.03-.55-.29-1.09-.66-1.63-1.12-.54-.45-1.01-1.02-1.43-1.7-.41-.68-.75-1.5-1-2.45-.25-.95-.38-2.06-.38-3.33s.12-2.38.38-3.33c.25-.95.58-1.78,1-2.47s.89-1.27,1.43-1.74c.54-.46,1.08-.84,1.63-1.14,1.3-.68,2.79-1.05,4.47-1.1,1.38.05,2.66.33,3.86.84.5.22,1.01.51,1.52.86s.99.79,1.42,1.32c.44.52.82,1.15,1.16,1.87.34.71.59,1.55.74,2.5ZM91.02,27.02c-.12-.39-.28-.78-.47-1.17-.19-.39-.45-.75-.77-1.06-.33-.32-.71-.57-1.16-.75s-.97-.27-1.57-.27-1.12.09-1.57.27c-.45.18-.84.43-1.16.75s-.59.67-.79,1.06c-.2.39-.35.78-.45,1.17h7.95Z"/>
      <path class="st1" d="M105.17,27.42c.35,0,.83,0,1.45.02.61.01,1.27.06,1.97.15.7.09,1.41.23,2.12.44.71.21,1.36.51,1.93.9.57.39,1.04.89,1.41,1.5.36.61.54,1.37.54,2.27,0,1.42-.32,2.55-.96,3.39-.64.84-1.42,1.48-2.35,1.92s-1.92.72-2.99.84c-1.06.12-2.01.18-2.84.18-.15,0-.48,0-.97-.02-.5-.01-1.08-.08-1.75-.2-.66-.12-1.36-.32-2.1-.59-.74-.27-1.42-.65-2.02-1.15-.61-.5-1.12-1.15-1.52-1.94s-.6-1.76-.6-2.91h4.58c0,.22.04.48.11.79.07.3.25.6.52.9s.69.54,1.24.75c.55.21,1.3.32,2.25.35,1.18.03,2.08-.03,2.72-.15.64-.12,1.11-.29,1.41-.49.3-.21.48-.42.54-.64.06-.22.09-.43.09-.62,0-.22-.04-.44-.11-.66-.08-.22-.27-.42-.58-.6-.31-.18-.8-.33-1.46-.46-.66-.12-1.58-.2-2.76-.22-.9-.03-1.8-.15-2.7-.36-.9-.22-1.72-.55-2.44-1.01-.72-.45-1.31-1.02-1.76-1.7s-.68-1.49-.68-2.42c0-1.03.23-1.92.68-2.69s1.04-1.4,1.78-1.89c.74-.49,1.58-.85,2.54-1.1s1.95-.36,3-.36c.55,0,1.29.06,2.21.18s1.83.4,2.72.84c.89.44,1.65,1.09,2.29,1.94s.94,2.02.92,3.48h-4.58c0-.78-.27-1.4-.81-1.85s-1.5-.68-2.87-.68c-1.03,0-1.85.19-2.48.57-.63.38-.94.9-.94,1.56s.3,1.09.9,1.36c.6.27,1.37.41,2.32.41Z"/>
      <path class="st1" d="M119.85,24.46v8.17c.08.29.21.56.41.81.18.2.42.38.73.55.31.17.72.26,1.22.26h2.85v4.43h-4.58c-.98-.1-1.85-.36-2.63-.81-.65-.36-1.24-.91-1.78-1.63-.54-.72-.81-1.72-.81-2.99V15.11h4.58v4.98h4.32v4.36h-4.32Z"/>
      <path class="st1" d="M144.99,25.52c0-1.27.27-2.26.82-2.99s1.15-1.27,1.8-1.63c.78-.44,1.65-.71,2.63-.81h5.25v4.43h-3.53c-.5,0-.91.09-1.22.26-.31.17-.56.36-.73.55-.2.24-.34.51-.41.81v12.53h-4.62v-13.15h0Z"/>
      <path class="st1" d="M164.65,39.04c-.07,0-.34-.01-.81-.04s-1.01-.13-1.63-.31c-.63-.18-1.29-.47-1.99-.86-.7-.39-1.35-.95-1.95-1.69-.6-.73-1.09-1.66-1.48-2.77s-.58-2.48-.58-4.12v-9.15h4.58v9.16c0,.54.05,1.09.15,1.65.1.56.29,1.08.56,1.54s.66.85,1.16,1.15c.5.3,1.16.46,1.99.46s1.49-.15,1.99-.46.89-.69,1.16-1.15c.27-.46.46-.98.56-1.54s.15-1.11.15-1.65v-9.16h4.58v9.16c0,1.64-.19,3.01-.58,4.12-.39,1.11-.88,2.03-1.48,2.77-.6.73-1.25,1.3-1.95,1.69-.7.39-1.36.68-1.99.86-.63.18-1.17.29-1.63.31-.45.02-.71.03-.79.03Z"/>
    </g>
    <g>
      <path class="st0" d="M143.71,28.53c-.4,0-.73.32-.73.72,0,1.56-.45,3.08-1.3,4.39-.94,1.45-2.3,2.57-3.92,3.22-1.94.78-4.18.81-6.15.1-1.6-.58-2.96-1.61-3.94-2.98-.76-1.06-1.26-2.29-1.44-3.55-.06-.38-.09-.78-.09-1.18,0-1.1.22-2.17.65-3.17.57-1.34,1.51-2.52,2.72-3.4,1.47-1.08,3.21-1.64,5.06-1.64,2.19,0,4.26.81,5.84,2.29.29.27.75.26,1.02-.02.14-.14.21-.32.21-.51,0-.19-.08-.37-.23-.5-1.84-1.73-4.27-2.69-6.84-2.69-2.16,0-4.2.67-5.92,1.93-1.41,1.03-2.51,2.41-3.19,3.99-.51,1.18-.76,2.44-.76,3.73,0,.46.03.92.1,1.39.22,1.49.8,2.93,1.7,4.17,1.16,1.6,2.75,2.8,4.63,3.49,1.1.4,2.26.6,3.45.6,1.3,0,2.56-.24,3.75-.71,1.91-.76,3.5-2.07,4.6-3.77,1-1.54,1.52-3.32,1.52-5.16,0-.39-.33-.72-.73-.72Z"/>
      <path class="st0" d="M137.82,22.43c-.45-.21-.94-.37-1.45-.5-.98-.23-2.04-.27-3.06-.11l-.24.04c-.55.1-1.1.27-1.64.51-.75.33-1.44.77-2.04,1.31-.77.69-1.38,1.5-1.82,2.42-.47.99-.7,2.05-.7,3.14,0,.59.07,1.18.21,1.75.09.38.48.61.87.53.19-.04.35-.16.46-.33.1-.16.13-.35.08-.54-.11-.46-.17-.94-.17-1.42,0-.88.19-1.74.57-2.54.35-.75.85-1.41,1.47-1.96.49-.44,1.05-.8,1.66-1.06.43-.19.87-.32,1.33-.41l.2-.03c.82-.13,1.68-.1,2.49.09.41.1.8.24,1.18.41.68.31,1.29.74,1.81,1.26.75.75,1.3,1.67,1.57,2.67.14.52.21,1.05.21,1.58,0,.85-.18,1.68-.53,2.46-.31.69-.75,1.31-1.29,1.84-.37.36-.79.68-1.25.95-.47.27-.98.48-1.52.63-1.62.43-3.45.18-4.88-.66-.34-.2-.79-.1-1,.24-.1.16-.13.35-.09.54.05.19.16.35.33.45,1.2.71,2.57,1.09,3.98,1.09.69,0,1.37-.09,2.02-.27.65-.17,1.28-.43,1.87-.77.56-.32,1.07-.71,1.54-1.17.68-.66,1.21-1.43,1.59-2.27.44-.96.66-1.99.66-3.04,0-.66-.09-1.32-.26-1.96-.34-1.24-1.01-2.38-1.94-3.31-.65-.64-1.4-1.16-2.23-1.55Z"/>
      <path class="st0" d="M131.86,26.29c.74-.65,1.7-1.01,2.7-1.01.52,0,1.01.09,1.48.27.37.14.79-.04.93-.4.07-.18.07-.37,0-.54-.08-.18-.22-.32-.4-.39-.63-.24-1.31-.37-2-.37-1.36,0-2.66.49-3.67,1.37-1.17,1.03-1.84,2.49-1.84,4.02,0,.35.04.72.11,1.09.29,1.37,1.1,2.57,2.29,3.36.92.61,1.99.94,3.11.94.37,0,.76-.04,1.14-.12.98-.2,1.89-.66,2.62-1.33.45-.41.82-.88,1.1-1.4.43-.78.65-1.66.65-2.54,0-.67-.13-1.33-.38-1.95-.12-.29-.42-.46-.72-.44-.15,0-.3.03-.43.12l-1.38,1.02c-.15.1-.25.27-.28.45-.03.18.02.37.13.52.11.15.27.24.45.26.03,0,.06,0,.09,0,.15,0,.29-.05.4-.13l.61-.45c.03.2.05.4.05.6,0,.65-.17,1.29-.48,1.86-.21.39-.48.73-.81,1.03-.54.49-1.21.84-1.94.98-1.07.22-2.21,0-3.12-.61-.88-.58-1.48-1.46-1.69-2.47-.06-.26-.08-.53-.08-.8,0-1.12.49-2.19,1.36-2.94Z"/>
    </g>
  </g>
  <g>
    <rect class="st1" y="4.16" width="49.53" height="45.83" rx="8.95" ry="8.95"/>
    <g>
      <path class="st0" d="M40.28,25.88c-.68,0-1.23.54-1.23,1.21,0,2.65-.76,5.22-2.2,7.44-1.6,2.46-3.9,4.35-6.66,5.46-3.29,1.32-7.09,1.38-10.43.16-2.71-.99-5.02-2.73-6.69-5.05-1.29-1.8-2.13-3.88-2.45-6.02-.1-.65-.15-1.32-.15-2,0-1.87.37-3.68,1.1-5.38.97-2.28,2.57-4.27,4.61-5.77,2.49-1.82,5.45-2.79,8.57-2.79,3.71,0,7.23,1.38,9.91,3.89.49.45,1.27.44,1.73-.03.23-.23.36-.54.35-.87,0-.33-.14-.63-.38-.85-3.13-2.94-7.24-4.56-11.6-4.56-3.66,0-7.13,1.13-10.05,3.27-2.38,1.75-4.25,4.09-5.41,6.77-.86,2-1.3,4.13-1.3,6.33,0,.78.06,1.57.17,2.35.37,2.53,1.36,4.98,2.88,7.07,1.96,2.71,4.67,4.75,7.84,5.91,1.87.68,3.84,1.02,5.86,1.02,2.21,0,4.34-.4,6.35-1.2,3.23-1.3,5.93-3.51,7.81-6.4,1.69-2.61,2.58-5.64,2.58-8.74,0-.67-.55-1.21-1.23-1.21Z"/>
      <path class="st0" d="M30.29,15.52c-.77-.35-1.6-.64-2.47-.84-1.67-.4-3.46-.46-5.19-.19l-.4.07c-.93.18-1.86.47-2.78.86-1.27.56-2.44,1.31-3.46,2.22-1.31,1.16-2.34,2.54-3.08,4.1-.79,1.68-1.19,3.47-1.19,5.33,0,1.01.12,2.01.36,2.98.16.65.82,1.04,1.48.89.33-.08.6-.27.77-.56.17-.28.22-.6.14-.91-.19-.78-.29-1.59-.29-2.4,0-1.5.32-2.94.97-4.3.6-1.27,1.44-2.39,2.5-3.33.84-.75,1.78-1.35,2.81-1.8.72-.32,1.48-.55,2.25-.7l.34-.06c1.39-.22,2.84-.17,4.22.15.69.17,1.36.4,2,.69,1.16.53,2.19,1.25,3.07,2.13,1.28,1.27,2.2,2.84,2.66,4.53.24.88.36,1.78.36,2.68,0,1.44-.3,2.85-.9,4.17-.53,1.16-1.27,2.21-2.19,3.12-.62.62-1.34,1.16-2.12,1.61-.8.46-1.67.82-2.58,1.07-2.75.73-5.84.31-8.27-1.13-.58-.35-1.33-.17-1.69.4-.17.27-.22.6-.15.92.08.32.28.59.56.76,2.03,1.2,4.37,1.84,6.75,1.84,1.16,0,2.32-.16,3.43-.46,1.11-.29,2.17-.74,3.18-1.31.95-.55,1.82-1.21,2.61-1.98,1.15-1.13,2.06-2.42,2.7-3.84.74-1.64,1.12-3.37,1.12-5.16,0-1.12-.15-2.24-.45-3.32-.57-2.1-1.71-4.04-3.29-5.61-1.1-1.09-2.37-1.98-3.79-2.63Z"/>
      <path class="st0" d="M20.18,22.08c1.26-1.1,2.89-1.71,4.59-1.71.87,0,1.72.15,2.5.46.63.24,1.34-.07,1.58-.69.12-.3.12-.62-.01-.92-.13-.3-.37-.53-.69-.66-1.07-.41-2.22-.62-3.39-.62-2.3,0-4.51.82-6.22,2.32-1.98,1.74-3.12,4.22-3.12,6.81,0,.6.06,1.22.19,1.84.49,2.33,1.87,4.35,3.89,5.7,1.55,1.04,3.38,1.59,5.27,1.59.63,0,1.28-.07,1.93-.2,1.66-.34,3.2-1.12,4.45-2.26.76-.69,1.39-1.49,1.87-2.37.72-1.32,1.11-2.82,1.11-4.31,0-1.13-.21-2.25-.64-3.31-.2-.5-.7-.78-1.22-.75-.25-.01-.51.04-.73.2l-2.34,1.73c-.26.18-.43.46-.48.76-.05.31.03.63.22.87.19.25.46.41.77.45.05,0,.1.01.15.01.25,0,.49-.08.68-.23l1.03-.76c.05.34.09.68.09,1.02,0,1.09-.28,2.19-.82,3.16-.36.66-.82,1.24-1.37,1.74-.92.84-2.06,1.42-3.28,1.67-1.82.38-3.75,0-5.3-1.03-1.49-.99-2.5-2.48-2.86-4.19-.09-.44-.14-.89-.14-1.35,0-1.9.84-3.72,2.3-4.99Z"/>
    </g>
  </g>
</svg>